<mxfile host="app.diagrams.net" modified="2023-03-27T16:07:11.344Z" agent="Mozilla/5.0 (Windows NT 10.0; Win64; x64) AppleWebKit/537.36 (KHTML, like Gecko) Chrome/111.0.0.0 Safari/537.36" etag="eKB2w7vzbie1OLo-fgG4" version="21.1.1" type="github">
  <diagram name="15" id="4gtxAalmX4xy4aHWjKQP">
    <mxGraphModel dx="1512" dy="649" grid="1" gridSize="10" guides="1" tooltips="1" connect="1" arrows="1" fold="1" page="1" pageScale="1" pageWidth="850" pageHeight="1100" math="0" shadow="0">
      <root>
        <mxCell id="0" />
        <mxCell id="1" parent="0" />
        <mxCell id="nBkLsz6WfWHHqdqch5IO-1" value="Course Offering" style="rounded=0;whiteSpace=wrap;html=1;" vertex="1" parent="1">
          <mxGeometry x="160" y="120" width="100" height="20" as="geometry" />
        </mxCell>
        <mxCell id="nBkLsz6WfWHHqdqch5IO-2" value="Enrolls" style="html=1;whiteSpace=wrap;aspect=fixed;shape=isoRectangle;" vertex="1" parent="1">
          <mxGeometry x="170" y="170" width="80" height="48" as="geometry" />
        </mxCell>
        <mxCell id="nBkLsz6WfWHHqdqch5IO-4" value="" style="endArrow=none;html=1;rounded=0;entryX=0.5;entryY=1;entryDx=0;entryDy=0;" edge="1" parent="1" target="nBkLsz6WfWHHqdqch5IO-1">
          <mxGeometry width="50" height="50" relative="1" as="geometry">
            <mxPoint x="210" y="171" as="sourcePoint" />
            <mxPoint x="230" y="140" as="targetPoint" />
          </mxGeometry>
        </mxCell>
        <mxCell id="nBkLsz6WfWHHqdqch5IO-5" value="Section" style="ellipse;whiteSpace=wrap;html=1;" vertex="1" parent="1">
          <mxGeometry x="50" y="70" width="60" height="20" as="geometry" />
        </mxCell>
        <mxCell id="nBkLsz6WfWHHqdqch5IO-6" value="Co-id" style="ellipse;whiteSpace=wrap;html=1;" vertex="1" parent="1">
          <mxGeometry x="120" y="51" width="60" height="20" as="geometry" />
        </mxCell>
        <mxCell id="nBkLsz6WfWHHqdqch5IO-7" value="User" style="ellipse;whiteSpace=wrap;html=1;" vertex="1" parent="1">
          <mxGeometry x="190" y="51" width="60" height="20" as="geometry" />
        </mxCell>
        <mxCell id="nBkLsz6WfWHHqdqch5IO-8" value="Semester" style="ellipse;whiteSpace=wrap;html=1;" vertex="1" parent="1">
          <mxGeometry x="260" y="51" width="60" height="20" as="geometry" />
        </mxCell>
        <mxCell id="nBkLsz6WfWHHqdqch5IO-9" value="i id" style="ellipse;whiteSpace=wrap;html=1;" vertex="1" parent="1">
          <mxGeometry x="40" y="120" width="60" height="20" as="geometry" />
        </mxCell>
        <mxCell id="nBkLsz6WfWHHqdqch5IO-10" value="" style="endArrow=none;html=1;rounded=0;entryX=1;entryY=0.5;entryDx=0;entryDy=0;exitX=-0.001;exitY=0.581;exitDx=0;exitDy=0;exitPerimeter=0;" edge="1" parent="1" source="nBkLsz6WfWHHqdqch5IO-1" target="nBkLsz6WfWHHqdqch5IO-9">
          <mxGeometry width="50" height="50" relative="1" as="geometry">
            <mxPoint x="220" y="181" as="sourcePoint" />
            <mxPoint x="220" y="150" as="targetPoint" />
            <Array as="points" />
          </mxGeometry>
        </mxCell>
        <mxCell id="nBkLsz6WfWHHqdqch5IO-11" value="" style="endArrow=none;html=1;rounded=0;entryX=0.726;entryY=0.955;entryDx=0;entryDy=0;exitX=0;exitY=0.5;exitDx=0;exitDy=0;entryPerimeter=0;" edge="1" parent="1" source="nBkLsz6WfWHHqdqch5IO-1" target="nBkLsz6WfWHHqdqch5IO-5">
          <mxGeometry width="50" height="50" relative="1" as="geometry">
            <mxPoint x="170" y="142" as="sourcePoint" />
            <mxPoint x="80" y="140" as="targetPoint" />
            <Array as="points" />
          </mxGeometry>
        </mxCell>
        <mxCell id="nBkLsz6WfWHHqdqch5IO-12" value="" style="endArrow=none;html=1;rounded=0;exitX=0.209;exitY=-0.002;exitDx=0;exitDy=0;exitPerimeter=0;entryX=0.469;entryY=1.007;entryDx=0;entryDy=0;entryPerimeter=0;" edge="1" parent="1" source="nBkLsz6WfWHHqdqch5IO-1" target="nBkLsz6WfWHHqdqch5IO-6">
          <mxGeometry width="50" height="50" relative="1" as="geometry">
            <mxPoint x="212" y="109" as="sourcePoint" />
            <mxPoint x="150" y="70" as="targetPoint" />
            <Array as="points" />
          </mxGeometry>
        </mxCell>
        <mxCell id="nBkLsz6WfWHHqdqch5IO-15" value="" style="endArrow=none;html=1;rounded=0;exitX=0.574;exitY=0.01;exitDx=0;exitDy=0;exitPerimeter=0;entryX=0.469;entryY=1.007;entryDx=0;entryDy=0;entryPerimeter=0;" edge="1" parent="1" source="nBkLsz6WfWHHqdqch5IO-1">
          <mxGeometry width="50" height="50" relative="1" as="geometry">
            <mxPoint x="250" y="120" as="sourcePoint" />
            <mxPoint x="217" y="71" as="targetPoint" />
            <Array as="points" />
          </mxGeometry>
        </mxCell>
        <mxCell id="nBkLsz6WfWHHqdqch5IO-16" value="" style="endArrow=none;html=1;rounded=0;entryX=0.5;entryY=1;entryDx=0;entryDy=0;" edge="1" parent="1" target="nBkLsz6WfWHHqdqch5IO-8">
          <mxGeometry width="50" height="50" relative="1" as="geometry">
            <mxPoint x="240" y="120" as="sourcePoint" />
            <mxPoint x="227" y="81" as="targetPoint" />
            <Array as="points">
              <mxPoint x="240" y="120" />
            </Array>
          </mxGeometry>
        </mxCell>
        <mxCell id="nBkLsz6WfWHHqdqch5IO-17" value="Time" style="ellipse;whiteSpace=wrap;html=1;" vertex="1" parent="1">
          <mxGeometry x="40" y="158" width="60" height="20" as="geometry" />
        </mxCell>
        <mxCell id="nBkLsz6WfWHHqdqch5IO-18" value="" style="endArrow=none;html=1;rounded=0;entryX=1;entryY=0.5;entryDx=0;entryDy=0;exitX=0;exitY=1;exitDx=0;exitDy=0;" edge="1" target="nBkLsz6WfWHHqdqch5IO-17" parent="1" source="nBkLsz6WfWHHqdqch5IO-1">
          <mxGeometry width="50" height="50" relative="1" as="geometry">
            <mxPoint x="150" y="218" as="sourcePoint" />
            <mxPoint x="70" y="228" as="targetPoint" />
            <Array as="points" />
          </mxGeometry>
        </mxCell>
        <mxCell id="nBkLsz6WfWHHqdqch5IO-19" value="ClassRoom" style="ellipse;whiteSpace=wrap;html=1;" vertex="1" parent="1">
          <mxGeometry x="320" y="71" width="80" height="20" as="geometry" />
        </mxCell>
        <mxCell id="nBkLsz6WfWHHqdqch5IO-20" value="" style="endArrow=none;html=1;rounded=0;entryX=0;entryY=1;entryDx=0;entryDy=0;exitX=1;exitY=0.5;exitDx=0;exitDy=0;" edge="1" parent="1" source="nBkLsz6WfWHHqdqch5IO-1" target="nBkLsz6WfWHHqdqch5IO-19">
          <mxGeometry width="50" height="50" relative="1" as="geometry">
            <mxPoint x="170" y="140" as="sourcePoint" />
            <mxPoint x="220" y="90" as="targetPoint" />
          </mxGeometry>
        </mxCell>
        <mxCell id="nBkLsz6WfWHHqdqch5IO-21" value="Instructor" style="rounded=0;whiteSpace=wrap;html=1;" vertex="1" parent="1">
          <mxGeometry x="160" y="260" width="100" height="20" as="geometry" />
        </mxCell>
        <mxCell id="nBkLsz6WfWHHqdqch5IO-22" value="" style="endArrow=none;html=1;rounded=0;entryX=0.5;entryY=0;entryDx=0;entryDy=0;exitX=0.499;exitY=0.977;exitDx=0;exitDy=0;exitPerimeter=0;" edge="1" parent="1" source="nBkLsz6WfWHHqdqch5IO-2" target="nBkLsz6WfWHHqdqch5IO-21">
          <mxGeometry width="50" height="50" relative="1" as="geometry">
            <mxPoint x="210" y="220" as="sourcePoint" />
            <mxPoint x="220" y="150" as="targetPoint" />
          </mxGeometry>
        </mxCell>
        <mxCell id="nBkLsz6WfWHHqdqch5IO-23" value="i id" style="ellipse;whiteSpace=wrap;html=1;" vertex="1" parent="1">
          <mxGeometry x="80" y="310" width="50" height="20" as="geometry" />
        </mxCell>
        <mxCell id="nBkLsz6WfWHHqdqch5IO-28" value="" style="endArrow=none;html=1;rounded=0;exitX=1;exitY=0.5;exitDx=0;exitDy=0;entryX=0.095;entryY=1.024;entryDx=0;entryDy=0;entryPerimeter=0;" edge="1" parent="1" source="nBkLsz6WfWHHqdqch5IO-23" target="nBkLsz6WfWHHqdqch5IO-21">
          <mxGeometry width="50" height="50" relative="1" as="geometry">
            <mxPoint x="270" y="200" as="sourcePoint" />
            <mxPoint x="320" y="150" as="targetPoint" />
          </mxGeometry>
        </mxCell>
        <mxCell id="nBkLsz6WfWHHqdqch5IO-29" value="Name" style="ellipse;whiteSpace=wrap;html=1;" vertex="1" parent="1">
          <mxGeometry x="130" y="330" width="50" height="20" as="geometry" />
        </mxCell>
        <mxCell id="nBkLsz6WfWHHqdqch5IO-30" value="" style="endArrow=none;html=1;rounded=0;exitX=1;exitY=0;exitDx=0;exitDy=0;entryX=0.25;entryY=1;entryDx=0;entryDy=0;" edge="1" parent="1" source="nBkLsz6WfWHHqdqch5IO-29" target="nBkLsz6WfWHHqdqch5IO-21">
          <mxGeometry width="50" height="50" relative="1" as="geometry">
            <mxPoint x="110" y="310" as="sourcePoint" />
            <mxPoint x="170" y="285" as="targetPoint" />
          </mxGeometry>
        </mxCell>
        <mxCell id="nBkLsz6WfWHHqdqch5IO-31" value="Co-id" style="ellipse;whiteSpace=wrap;html=1;" vertex="1" parent="1">
          <mxGeometry x="190" y="340" width="50" height="20" as="geometry" />
        </mxCell>
        <mxCell id="nBkLsz6WfWHHqdqch5IO-32" value="" style="endArrow=none;html=1;rounded=0;exitX=0.5;exitY=0;exitDx=0;exitDy=0;entryX=0.5;entryY=1;entryDx=0;entryDy=0;" edge="1" parent="1" source="nBkLsz6WfWHHqdqch5IO-31" target="nBkLsz6WfWHHqdqch5IO-21">
          <mxGeometry width="50" height="50" relative="1" as="geometry">
            <mxPoint x="153" y="333" as="sourcePoint" />
            <mxPoint x="195" y="290" as="targetPoint" />
          </mxGeometry>
        </mxCell>
        <mxCell id="nBkLsz6WfWHHqdqch5IO-33" value="Title" style="ellipse;whiteSpace=wrap;html=1;" vertex="1" parent="1">
          <mxGeometry x="250" y="330" width="50" height="20" as="geometry" />
        </mxCell>
        <mxCell id="nBkLsz6WfWHHqdqch5IO-34" value="" style="endArrow=none;html=1;rounded=0;exitX=0.5;exitY=0;exitDx=0;exitDy=0;entryX=0.871;entryY=1.019;entryDx=0;entryDy=0;entryPerimeter=0;" edge="1" parent="1" source="nBkLsz6WfWHHqdqch5IO-33" target="nBkLsz6WfWHHqdqch5IO-21">
          <mxGeometry width="50" height="50" relative="1" as="geometry">
            <mxPoint x="195" y="340" as="sourcePoint" />
            <mxPoint x="220" y="290" as="targetPoint" />
          </mxGeometry>
        </mxCell>
        <mxCell id="nBkLsz6WfWHHqdqch5IO-36" value="Offer" style="html=1;whiteSpace=wrap;aspect=fixed;shape=isoRectangle;" vertex="1" parent="1">
          <mxGeometry x="400" y="110" width="80" height="48" as="geometry" />
        </mxCell>
        <mxCell id="nBkLsz6WfWHHqdqch5IO-37" value="" style="endArrow=none;html=1;rounded=0;entryX=0.012;entryY=0.499;entryDx=0;entryDy=0;exitX=1;exitY=0.75;exitDx=0;exitDy=0;entryPerimeter=0;" edge="1" parent="1" source="nBkLsz6WfWHHqdqch5IO-1" target="nBkLsz6WfWHHqdqch5IO-36">
          <mxGeometry width="50" height="50" relative="1" as="geometry">
            <mxPoint x="270" y="140" as="sourcePoint" />
            <mxPoint x="340" y="98" as="targetPoint" />
          </mxGeometry>
        </mxCell>
        <mxCell id="nBkLsz6WfWHHqdqch5IO-38" value="Course" style="rounded=0;whiteSpace=wrap;html=1;" vertex="1" parent="1">
          <mxGeometry x="600" y="124" width="100" height="20" as="geometry" />
        </mxCell>
        <mxCell id="nBkLsz6WfWHHqdqch5IO-39" value="" style="endArrow=none;html=1;rounded=0;entryX=0.986;entryY=0.499;entryDx=0;entryDy=0;exitX=0;exitY=0.5;exitDx=0;exitDy=0;entryPerimeter=0;" edge="1" parent="1" source="nBkLsz6WfWHHqdqch5IO-38" target="nBkLsz6WfWHHqdqch5IO-36">
          <mxGeometry width="50" height="50" relative="1" as="geometry">
            <mxPoint x="270" y="145" as="sourcePoint" />
            <mxPoint x="411" y="144" as="targetPoint" />
          </mxGeometry>
        </mxCell>
        <mxCell id="nBkLsz6WfWHHqdqch5IO-40" value="" style="endArrow=none;html=1;rounded=0;entryX=0.5;entryY=1;entryDx=0;entryDy=0;" edge="1" parent="1">
          <mxGeometry width="50" height="50" relative="1" as="geometry">
            <mxPoint x="650" y="175" as="sourcePoint" />
            <mxPoint x="650" y="144" as="targetPoint" />
          </mxGeometry>
        </mxCell>
        <mxCell id="nBkLsz6WfWHHqdqch5IO-41" value="Enrolls" style="html=1;whiteSpace=wrap;aspect=fixed;shape=isoRectangle;" vertex="1" parent="1">
          <mxGeometry x="610" y="174" width="80" height="48" as="geometry" />
        </mxCell>
      </root>
    </mxGraphModel>
  </diagram>
</mxfile>
